<svg width="119" height="46" viewBox="0 0 119 46" fill="none" xmlns="http://www.w3.org/2000/svg">
<g clip-path="url(#clip0_134_29044)">
<path d="M22.644 31H17.884L7.106 14.714V31H2.346V7.234H7.106L17.884 23.554V7.234H22.644V31ZM28.198 11.11V17.06H36.188V20.834H28.198V27.124H37.208V31H23.438V7.234H37.208V11.11H28.198ZM51.8357 31L46.7017 23.01L42.0437 31H36.6717L44.1517 19.032L36.5697 7.268H42.0437L47.1777 15.224L51.8017 7.268H57.1737L49.7277 19.202L57.3097 31H51.8357ZM73.1723 7.268V11.11H66.8483V31H62.0883V11.11H55.7643V7.268H73.1723ZM83.7513 31.238C81.53 31.238 79.49 30.7167 77.6313 29.674C75.7726 28.6313 74.2993 27.192 73.2113 25.356C72.1233 23.4973 71.5793 21.4007 71.5793 19.066C71.5793 16.754 72.1233 14.68 73.2113 12.844C74.2993 10.9853 75.7726 9.53466 77.6313 8.492C79.49 7.44933 81.53 6.928 83.7513 6.928C85.9953 6.928 88.0353 7.44933 89.8713 8.492C91.73 9.53466 93.192 10.9853 94.2573 12.844C95.3453 14.68 95.8893 16.754 95.8893 19.066C95.8893 21.4007 95.3453 23.4973 94.2573 25.356C93.192 27.192 91.73 28.6313 89.8713 29.674C88.0126 30.7167 85.9726 31.238 83.7513 31.238ZM83.7513 26.988C85.1793 26.988 86.4373 26.6707 87.5253 26.036C88.6133 25.3787 89.4633 24.4493 90.0753 23.248C90.6873 22.0467 90.9933 20.6527 90.9933 19.066C90.9933 17.4793 90.6873 16.0967 90.0753 14.918C89.4633 13.7167 88.6133 12.7987 87.5253 12.164C86.4373 11.5293 85.1793 11.212 83.7513 11.212C82.3233 11.212 81.054 11.5293 79.9433 12.164C78.8553 12.7987 78.0053 13.7167 77.3933 14.918C76.7813 16.0967 76.4753 17.4793 76.4753 19.066C76.4753 20.6527 76.7813 22.0467 77.3933 23.248C78.0053 24.4493 78.8553 25.3787 79.9433 26.036C81.054 26.6707 82.3233 26.988 83.7513 26.988ZM115.819 31H111.059L100.281 14.714V31H95.5206V7.234H100.281L111.059 23.554V7.234H115.819V31Z" fill="#111827"/>
<path d="M49.078 41.87C49.078 42.1127 49.064 42.3693 49.036 42.64H42.904C42.9507 43.396 43.2073 43.9887 43.674 44.418C44.15 44.838 44.724 45.048 45.396 45.048C45.9467 45.048 46.404 44.922 46.768 44.67C47.1413 44.4087 47.4027 44.0633 47.552 43.634H48.924C48.7187 44.3713 48.308 44.9733 47.692 45.44C47.076 45.8973 46.3107 46.126 45.396 46.126C44.668 46.126 44.0147 45.9627 43.436 45.636C42.8667 45.3093 42.4187 44.8473 42.092 44.25C41.7653 43.6433 41.602 42.9433 41.602 42.15C41.602 41.3567 41.7607 40.6613 42.078 40.064C42.3953 39.4667 42.8387 39.0093 43.408 38.692C43.9867 38.3653 44.6493 38.202 45.396 38.202C46.124 38.202 46.768 38.3607 47.328 38.678C47.888 38.9953 48.3173 39.434 48.616 39.994C48.924 40.5447 49.078 41.17 49.078 41.87ZM47.762 41.604C47.762 41.1187 47.6547 40.7033 47.44 40.358C47.2253 40.0033 46.9313 39.7373 46.558 39.56C46.194 39.3733 45.788 39.28 45.34 39.28C44.696 39.28 44.1453 39.4853 43.688 39.896C43.24 40.3067 42.9833 40.876 42.918 41.604H47.762ZM48.8836 41.114C48.8836 40.162 49.0983 39.308 49.5276 38.552C49.957 37.7867 50.5403 37.1893 51.2776 36.76C52.0243 36.3307 52.8503 36.116 53.7556 36.116C54.8196 36.116 55.7483 36.3727 56.5416 36.886C57.335 37.3993 57.9136 38.1273 58.2776 39.07H56.7516C56.481 38.482 56.089 38.0293 55.5756 37.712C55.0716 37.3947 54.465 37.236 53.7556 37.236C53.0743 37.236 52.463 37.3947 51.9216 37.712C51.3803 38.0293 50.9556 38.482 50.6476 39.07C50.3396 39.6487 50.1856 40.33 50.1856 41.114C50.1856 41.8887 50.3396 42.57 50.6476 43.158C50.9556 43.7367 51.3803 44.1847 51.9216 44.502C52.463 44.8193 53.0743 44.978 53.7556 44.978C54.465 44.978 55.0716 44.824 55.5756 44.516C56.089 44.1987 56.481 43.746 56.7516 43.158H58.2776C57.9136 44.0913 57.335 44.8147 56.5416 45.328C55.7483 45.832 54.8196 46.084 53.7556 46.084C52.8503 46.084 52.0243 45.874 51.2776 45.454C50.5403 45.0247 49.957 44.432 49.5276 43.676C49.0983 42.92 48.8836 42.066 48.8836 41.114ZM62.1201 46.126C61.4014 46.126 60.7481 45.9627 60.1601 45.636C59.5814 45.3093 59.1241 44.8473 58.7881 44.25C58.4614 43.6433 58.2981 42.9433 58.2981 42.15C58.2981 41.366 58.4661 40.6753 58.8021 40.078C59.1474 39.4713 59.6141 39.0093 60.2021 38.692C60.7901 38.3653 61.4481 38.202 62.1761 38.202C62.9041 38.202 63.5621 38.3653 64.1501 38.692C64.7381 39.0093 65.2001 39.4667 65.5361 40.064C65.8814 40.6613 66.0541 41.3567 66.0541 42.15C66.0541 42.9433 65.8768 43.6433 65.5221 44.25C65.1768 44.8473 64.7054 45.3093 64.1081 45.636C63.5108 45.9627 62.8481 46.126 62.1201 46.126ZM62.1201 45.006C62.5774 45.006 63.0068 44.8987 63.4081 44.684C63.8094 44.4693 64.1314 44.1473 64.3741 43.718C64.6261 43.2887 64.7521 42.766 64.7521 42.15C64.7521 41.534 64.6308 41.0113 64.3881 40.582C64.1454 40.1527 63.8281 39.8353 63.4361 39.63C63.0441 39.4153 62.6194 39.308 62.1621 39.308C61.6954 39.308 61.2661 39.4153 60.8741 39.63C60.4914 39.8353 60.1834 40.1527 59.9501 40.582C59.7168 41.0113 59.6001 41.534 59.6001 42.15C59.6001 42.7753 59.7121 43.3027 59.9361 43.732C60.1694 44.1613 60.4774 44.4833 60.8601 44.698C61.2428 44.9033 61.6628 45.006 62.1201 45.006ZM75.5552 38.188C76.1525 38.188 76.6845 38.314 77.1512 38.566C77.6178 38.8087 77.9865 39.1773 78.2572 39.672C78.5278 40.1667 78.6632 40.7687 78.6632 41.478V46H77.4032V41.66C77.4032 40.8947 77.2118 40.3113 76.8292 39.91C76.4558 39.4993 75.9472 39.294 75.3032 39.294C74.6405 39.294 74.1132 39.5087 73.7212 39.938C73.3292 40.358 73.1332 40.9693 73.1332 41.772V46H71.8732V41.66C71.8732 40.8947 71.6818 40.3113 71.2992 39.91C70.9258 39.4993 70.4172 39.294 69.7732 39.294C69.1105 39.294 68.5832 39.5087 68.1912 39.938C67.7992 40.358 67.6032 40.9693 67.6032 41.772V46H66.3292V38.328H67.6032V39.434C67.8552 39.0327 68.1912 38.7247 68.6112 38.51C69.0405 38.2953 69.5118 38.188 70.0252 38.188C70.6692 38.188 71.2385 38.3327 71.7332 38.622C72.2278 38.9113 72.5965 39.336 72.8392 39.896C73.0538 39.3547 73.4085 38.9347 73.9032 38.636C74.3978 38.3373 74.9485 38.188 75.5552 38.188ZM88.579 38.188C89.1763 38.188 89.7083 38.314 90.175 38.566C90.6417 38.8087 91.0103 39.1773 91.281 39.672C91.5517 40.1667 91.687 40.7687 91.687 41.478V46H90.427V41.66C90.427 40.8947 90.2357 40.3113 89.853 39.91C89.4797 39.4993 88.971 39.294 88.327 39.294C87.6643 39.294 87.137 39.5087 86.745 39.938C86.353 40.358 86.157 40.9693 86.157 41.772V46H84.897V41.66C84.897 40.8947 84.7057 40.3113 84.323 39.91C83.9497 39.4993 83.441 39.294 82.797 39.294C82.1343 39.294 81.607 39.5087 81.215 39.938C80.823 40.358 80.627 40.9693 80.627 41.772V46H79.353V38.328H80.627V39.434C80.879 39.0327 81.215 38.7247 81.635 38.51C82.0643 38.2953 82.5357 38.188 83.049 38.188C83.693 38.188 84.2623 38.3327 84.757 38.622C85.2517 38.9113 85.6203 39.336 85.863 39.896C86.0777 39.3547 86.4323 38.9347 86.927 38.636C87.4217 38.3373 87.9723 38.188 88.579 38.188ZM99.3768 41.87C99.3768 42.1127 99.3628 42.3693 99.3348 42.64H93.2028C93.2495 43.396 93.5062 43.9887 93.9728 44.418C94.4488 44.838 95.0228 45.048 95.6948 45.048C96.2455 45.048 96.7028 44.922 97.0668 44.67C97.4402 44.4087 97.7015 44.0633 97.8508 43.634H99.2228C99.0175 44.3713 98.6068 44.9733 97.9908 45.44C97.3748 45.8973 96.6095 46.126 95.6948 46.126C94.9668 46.126 94.3135 45.9627 93.7348 45.636C93.1655 45.3093 92.7175 44.8473 92.3908 44.25C92.0642 43.6433 91.9008 42.9433 91.9008 42.15C91.9008 41.3567 92.0595 40.6613 92.3768 40.064C92.6942 39.4667 93.1375 39.0093 93.7068 38.692C94.2855 38.3653 94.9482 38.202 95.6948 38.202C96.4228 38.202 97.0668 38.3607 97.6268 38.678C98.1868 38.9953 98.6162 39.434 98.9148 39.994C99.2228 40.5447 99.3768 41.17 99.3768 41.87ZM98.0608 41.604C98.0608 41.1187 97.9535 40.7033 97.7388 40.358C97.5242 40.0033 97.2302 39.7373 96.8568 39.56C96.4928 39.3733 96.0868 39.28 95.6388 39.28C94.9948 39.28 94.4442 39.4853 93.9868 39.896C93.5388 40.3067 93.2822 40.876 93.2168 41.604H98.0608ZM100.932 39.574C101.156 39.1353 101.474 38.7947 101.884 38.552C102.304 38.3093 102.813 38.188 103.41 38.188V39.504H103.074C101.646 39.504 100.932 40.2787 100.932 41.828V46H99.6585V38.328H100.932V39.574ZM103.005 42.15C103.005 41.3567 103.164 40.666 103.481 40.078C103.798 39.4807 104.237 39.0187 104.797 38.692C105.366 38.3653 106.015 38.202 106.743 38.202C107.686 38.202 108.46 38.4307 109.067 38.888C109.683 39.3453 110.089 39.98 110.285 40.792H108.913C108.782 40.3253 108.526 39.9567 108.143 39.686C107.77 39.4153 107.303 39.28 106.743 39.28C106.015 39.28 105.427 39.532 104.979 40.036C104.531 40.5307 104.307 41.2353 104.307 42.15C104.307 43.074 104.531 43.788 104.979 44.292C105.427 44.796 106.015 45.048 106.743 45.048C107.303 45.048 107.77 44.9173 108.143 44.656C108.516 44.3947 108.773 44.0213 108.913 43.536H110.285C110.08 44.32 109.669 44.95 109.053 45.426C108.437 45.8927 107.667 46.126 106.743 46.126C106.015 46.126 105.366 45.9627 104.797 45.636C104.237 45.3093 103.798 44.8473 103.481 44.25C103.164 43.6527 103.005 42.9527 103.005 42.15ZM117.585 41.87C117.585 42.1127 117.571 42.3693 117.543 42.64H111.411C111.458 43.396 111.714 43.9887 112.181 44.418C112.657 44.838 113.231 45.048 113.903 45.048C114.454 45.048 114.911 44.922 115.275 44.67C115.648 44.4087 115.91 44.0633 116.059 43.634H117.431C117.226 44.3713 116.815 44.9733 116.199 45.44C115.583 45.8973 114.818 46.126 113.903 46.126C113.175 46.126 112.522 45.9627 111.943 45.636C111.374 45.3093 110.926 44.8473 110.599 44.25C110.272 43.6433 110.109 42.9433 110.109 42.15C110.109 41.3567 110.268 40.6613 110.585 40.064C110.902 39.4667 111.346 39.0093 111.915 38.692C112.494 38.3653 113.156 38.202 113.903 38.202C114.631 38.202 115.275 38.3607 115.835 38.678C116.395 38.9953 116.824 39.434 117.123 39.994C117.431 40.5447 117.585 41.17 117.585 41.87ZM116.269 41.604C116.269 41.1187 116.162 40.7033 115.947 40.358C115.732 40.0033 115.438 39.7373 115.065 39.56C114.701 39.3733 114.295 39.28 113.847 39.28C113.203 39.28 112.652 39.4853 112.195 39.896C111.747 40.3067 111.49 40.876 111.425 41.604H116.269Z" fill="#111827"/>
</g>
<defs>
<clipPath id="clip0_134_29044">
<rect width="119" height="46" fill="white"/>
</clipPath>
</defs>
</svg>
